HIERARCHY
ROOT Hips
{
	OFFSET -0.001795 -0.223333 0.028219
	CHANNELS 6 Xposition Yposition Zposition Zrotation Yrotation Xrotation
	JOINT LeftUpLeg
	{
		OFFSET 0.069520 -0.091406 -0.006815
		CHANNELS 3 Zrotation Yrotation Xrotation
		JOINT LeftLeg
		{
			OFFSET 0.034277 -0.375199 -0.004496
			CHANNELS 3 Zrotation Yrotation Xrotation
			JOINT LeftFoot
			{
				OFFSET -0.013596 -0.397961 -0.043693
				CHANNELS 3 Zrotation Yrotation Xrotation
				JOINT LeftToe
				{
					OFFSET 0.026358 -0.055791 0.119288
					CHANNELS 3 Zrotation Yrotation Xrotation
					End Site
					{
						OFFSET 0.000000 0.000000 0.000000
					}
				}
			}
		}
	}
	JOINT RightUpLeg
	{
		OFFSET -0.067670 -0.090522 -0.004320
		CHANNELS 3 Zrotation Yrotation Xrotation
		JOINT RightLeg
		{
			OFFSET -0.038290 -0.382569 -0.008850
			CHANNELS 3 Zrotation Yrotation Xrotation
			JOINT RightFoot
			{
				OFFSET 0.015774 -0.398415 -0.042312
				CHANNELS 3 Zrotation Yrotation Xrotation
				JOINT RightToe
				{
					OFFSET -0.025372 -0.048144 0.123348
					CHANNELS 3 Zrotation Yrotation Xrotation
					End Site
					{
						OFFSET 0.000000 0.000000 0.000000
					}
				}
			}
		}
	}
	JOINT Spine
	{
		OFFSET -0.002533 0.108963 -0.026696
		CHANNELS 3 Zrotation Yrotation Xrotation
		JOINT Spine1
		{
			OFFSET 0.005487 0.135180 0.001092
			CHANNELS 3 Zrotation Yrotation Xrotation
			JOINT Spine2
			{
				OFFSET 0.001457 0.052922 0.025425
				CHANNELS 3 Zrotation Yrotation Xrotation
				JOINT Neck
				{
					OFFSET -0.002778 0.213870 -0.042857
					CHANNELS 3 Zrotation Yrotation Xrotation
					JOINT Head
					{
						OFFSET 0.005152 0.064970 0.051349
						CHANNELS 3 Zrotation Yrotation Xrotation
						End Site
						{
							OFFSET 0.000000 0.000000 0.000000
						}
					}
				}
				JOINT LeftShoulder
				{
					OFFSET 0.078845 0.121749 -0.034090
					CHANNELS 3 Zrotation Yrotation Xrotation
					JOINT LeftArm
					{
						OFFSET 0.090977 0.030469 -0.008868
						CHANNELS 3 Zrotation Yrotation Xrotation
						JOINT LeftForeArm
						{
							OFFSET 0.259612 -0.012772 -0.027456
							CHANNELS 3 Zrotation Yrotation Xrotation
							JOINT LeftHand
							{
								OFFSET 0.249234 0.008986 -0.001171
								CHANNELS 3 Zrotation Yrotation Xrotation
								End Site
								{
									OFFSET 0.000000 0.000000 0.000000
								}
							}
						}
					}
				}
				JOINT RightShoulder
				{
					OFFSET -0.081759 0.118833 -0.038615
					CHANNELS 3 Zrotation Yrotation Xrotation
					JOINT RightArm
					{
						OFFSET -0.096012 0.032551 -0.009143
						CHANNELS 3 Zrotation Yrotation Xrotation
						JOINT RightForeArm
						{
							OFFSET -0.253742 -0.013329 -0.021401
							CHANNELS 3 Zrotation Yrotation Xrotation
							JOINT RightHand
							{
								OFFSET -0.255298 0.007772 -0.005559
								CHANNELS 3 Zrotation Yrotation Xrotation
								End Site
								{
									OFFSET 0.000000 0.000000 0.000000
								}
							}
						}
					}
				}
			}
		}
	}
}
MOTION
Frames: 11
Frame Time: 0.050000
-0.333852 0.457372 0.283325 -6.657957 -55.238826 18.431342 29.814115 23.988448 -34.474100 29.240881 -21.569856 112.726239 -6.453359 -36.054500 -11.197805 0.000000 0.000000 0.000000 -84.415054 -8.634466 -71.653368 118.803733 -8.575088 -17.661224 -77.392461 -60.930530 55.699404 0.000000 0.000000 0.000000 30.662273 0.618381 69.700969 4.816574 -0.352858 -35.606868 -7.521055 -18.521719 20.380970 -0.987120 -1.817270 -22.486158 0.000000 0.000000 0.000000 0.547912 -20.509211 8.750394 -35.469366 -42.594393 9.160208 102.146981 -37.771608 -29.705400 0.000000 0.000000 0.000000 2.175254 16.288677 3.441579 19.323409 33.546635 0.797310 -131.131874 51.346395 -105.517172 0.000000 0.000000 0.000000
-0.339439 0.448091 0.281509 -7.473227 -54.393616 16.759969 29.720818 22.851910 -33.488115 32.574660 -25.735016 110.624357 -8.493609 -35.043952 -7.641329 0.000000 0.000000 0.000000 -81.138616 -8.480908 -73.011709 120.508513 -11.301344 -14.829822 -79.829647 -60.066258 58.727099 0.000000 0.000000 0.000000 29.944578 0.550826 69.588671 5.695990 -0.637331 -34.609734 -6.986876 -17.075449 19.442643 -2.806546 -0.403615 -20.777400 0.000000 0.000000 0.000000 0.161560 -20.051505 8.512604 -35.292357 -39.910856 7.640483 101.687479 -39.907912 -31.860253 0.000000 0.000000 0.000000 4.328084 17.678975 3.578329 15.593543 31.963726 0.395377 -127.731459 52.656120 -100.915049 0.000000 0.000000 0.000000
-0.340752 0.445025 0.280266 -8.215731 -52.986354 15.821694 28.492826 21.914716 -34.436859 34.943769 -29.222659 109.018520 -11.774739 -32.467849 -0.815911 0.000000 0.000000 0.000000 -79.013055 -8.234126 -72.810280 121.092718 -12.305869 -13.289880 -81.409879 -59.089479 61.926299 0.000000 0.000000 0.000000 28.885725 0.335444 67.977590 5.290603 -0.707223 -33.577615 -5.561502 -16.223446 19.704367 -3.027617 -0.253810 -21.540158 0.000000 0.000000 0.000000 -0.618035 -20.593600 9.003645 -33.796059 -38.565876 6.492761 103.450329 -42.448936 -36.087528 0.000000 0.000000 0.000000 4.547669 18.474074 3.830010 11.510057 31.844322 -0.420058 -119.594423 53.880166 -91.869455 0.000000 0.000000 0.000000
-0.338204 0.453750 0.278077 -9.193369 -50.005334 15.618671 27.028492 20.264918 -35.285964 35.101595 -28.957218 107.242573 -10.152708 -26.243398 -0.422348 0.000000 0.000000 0.000000 -74.433124 -7.247232 -72.428069 118.929866 -13.639391 -10.209061 -87.009000 -59.914553 67.408872 0.000000 0.000000 0.000000 26.673089 0.169824 65.609937 6.622441 -1.012762 -31.716684 -4.415406 -13.848335 18.808891 -2.135185 -0.538281 -20.522633 0.000000 0.000000 0.000000 -0.787386 -20.855736 9.145582 -32.032466 -37.656971 5.465512 103.310072 -43.078542 -36.993663 0.000000 0.000000 0.000000 5.316665 19.792964 4.250915 8.952341 31.271695 -0.789309 -112.881299 52.217854 -81.073920 0.000000 0.000000 0.000000
-0.332846 0.475322 0.274765 -9.873685 -46.901172 15.250630 26.063773 18.649212 -35.617282 33.179989 -26.234390 106.272995 -6.001183 -18.785980 -3.814893 0.000000 0.000000 0.000000 -69.936258 -6.482001 -71.838654 115.409939 -15.486240 -6.539985 -86.850203 -57.303962 73.225361 0.000000 0.000000 0.000000 23.283444 0.404231 62.888757 8.374758 -1.149772 -32.224345 -4.173062 -11.278278 21.435708 -1.961857 -0.592084 -20.726993 0.000000 0.000000 0.000000 -4.479030 -19.717536 10.087518 -30.145556 -36.131577 3.736844 111.594689 -47.602372 -48.732351 0.000000 0.000000 0.000000 7.331847 21.510967 4.825152 5.590010 28.746732 -1.330886 -106.421859 47.371362 -67.163649 0.000000 0.000000 0.000000
-0.325683 0.507603 0.271202 -10.073387 -40.920315 14.540701 25.861681 16.806078 -36.336188 28.074833 -20.566177 104.045407 0.568891 -8.639454 -12.154664 0.000000 0.000000 0.000000 -62.610899 -5.540421 -69.393838 109.040602 -18.287968 -0.042429 -89.170244 -57.056847 78.912472 0.000000 0.000000 0.000000 19.147860 -0.070121 59.008461 11.892657 -1.548993 -31.231714 -3.191482 -7.058593 21.576680 -0.761490 -0.837825 -20.472575 0.000000 0.000000 0.000000 -9.914376 -19.488576 11.703304 -26.518271 -36.051559 2.210158 118.064480 -54.024811 -64.887091 0.000000 0.000000 0.000000 7.342608 21.492623 5.551189 6.162231 26.752011 -1.148824 -100.192499 42.423543 -54.116234 0.000000 0.000000 0.000000
-0.317704 0.552293 0.268252 -8.943696 -34.794187 13.291962 24.280948 14.541389 -38.326647 21.588987 -13.677747 101.644561 4.888656 -1.195730 -20.428358 0.000000 0.000000 0.000000 -54.429434 -4.786006 -67.342608 98.779087 -22.812022 9.896023 -88.310649 -57.165034 81.367761 0.000000 0.000000 0.000000 15.040337 -0.577905 54.299630 14.209190 -1.733417 -31.028598 -2.591398 -4.200443 22.899747 -1.218715 -0.189662 -18.896809 0.000000 0.000000 0.000000 -18.777449 -17.565504 13.427235 -20.651703 -35.038037 0.022077 131.637970 -59.936779 -89.745862 0.000000 0.000000 0.000000 8.034808 21.989504 6.307202 5.773891 23.870830 -1.159404 -92.603821 37.410903 -41.844113 0.000000 0.000000 0.000000
-0.309924 0.602821 0.266929 -7.790653 -29.414981 11.923131 25.666698 12.806315 -36.717102 14.266331 -5.037607 95.003489 6.570823 0.424620 -29.124020 0.000000 0.000000 0.000000 -46.346033 -3.640583 -63.875942 85.978833 -24.763338 20.303140 -85.247872 -58.244516 80.006767 0.000000 0.000000 0.000000 11.466333 -0.890236 49.211090 15.684743 -2.127363 -29.215538 -2.466603 -0.117449 23.197989 1.585479 -1.445041 -18.368019 0.000000 0.000000 0.000000 -22.049791 -16.878146 12.629015 -20.685137 -33.022061 -0.229271 148.043035 -61.335766 -115.020806 0.000000 0.000000 0.000000 8.297291 20.449056 6.549927 7.335335 22.073448 -1.015833 -88.829213 32.767899 -33.238941 0.000000 0.000000 0.000000
-0.303098 0.657889 0.267361 -6.572774 -23.941496 11.381193 24.241288 10.334130 -36.943318 8.269530 0.151838 86.920737 5.783758 -1.845803 -30.406749 0.000000 0.000000 0.000000 -39.725938 -3.125677 -60.174721 68.386956 -23.453864 30.485637 -73.154184 -52.868955 80.364576 0.000000 0.000000 0.000000 8.746699 -1.296159 44.584169 14.929141 -2.056626 -28.752900 0.030143 1.541218 23.312162 2.189708 -1.602330 -15.791496 0.000000 0.000000 0.000000 -25.665300 -13.385960 10.357868 -20.618662 -32.488716 -0.299954 163.100816 -60.206836 -138.312616 0.000000 0.000000 0.000000 6.471064 18.363678 6.177863 8.309821 20.946263 -1.034227 -82.803222 32.149128 -28.724301 0.000000 0.000000 0.000000
-0.297637 0.708485 0.268783 -5.050711 -19.046839 10.367709 24.814644 8.611366 -35.163268 0.522757 5.640244 77.338230 4.358131 -3.313569 -26.810164 0.000000 0.000000 0.000000 -34.300928 -2.774085 -55.918718 50.911908 -19.404671 38.252749 -53.091915 -55.895196 53.511951 0.000000 0.000000 0.000000 5.753375 -1.147537 40.544573 13.925262 -1.959696 -28.105979 2.112080 4.593628 23.207729 4.007503 -2.243630 -15.868705 0.000000 0.000000 0.000000 -25.872579 -12.718051 8.197070 -21.473217 -31.220304 0.078407 165.386260 -56.995812 -141.957994 0.000000 0.000000 0.000000 2.283085 16.168601 5.640734 12.977833 18.725450 -0.870703 -82.542716 29.911322 -25.036659 0.000000 0.000000 0.000000
-0.294023 0.750968 0.270885 -3.708418 -13.489892 9.600021 23.800372 6.588780 -34.618138 -4.536657 6.938376 68.651574 2.449721 -3.425952 -18.377088 0.000000 0.000000 0.000000 -31.389790 -3.352092 -50.890464 37.096988 -14.215371 39.835032 -35.065419 -49.541925 36.259623 0.000000 0.000000 0.000000 4.800325 -1.673427 37.867250 12.391089 -1.415963 -29.928508 3.018817 5.482725 22.232637 4.618958 -2.584814 -12.780082 0.000000 0.000000 0.000000 -26.243480 -10.789016 5.682559 -22.883284 -32.208631 0.779100 164.137714 -56.496778 -140.893261 0.000000 0.000000 0.000000 1.136013 13.182377 4.703853 16.191565 19.143690 -0.753436 -81.190029 30.659417 -23.544261 0.000000 0.000000 0.000000
